<?xml version="1.0" encoding="UTF-8" standalone="no"?>
<!DOCTYPE svg PUBLIC "-//W3C//DTD SVG 1.1//EN"
 "http://www.w3.org/Graphics/SVG/1.1/DTD/svg11.dtd">
<!-- Generated by graphviz version 2.38.0 (20140413.2041)
 -->
<!-- Title: dependency&#45;cruiser output Pages: 1 -->
<svg width="618pt" height="226pt"
 viewBox="0.00 0.00 618.00 226.00" xmlns="http://www.w3.org/2000/svg" xmlns:xlink="http://www.w3.org/1999/xlink">
<g id="graph0" class="graph" transform="scale(1 1) rotate(0) translate(4 222)">
<title>dependency&#45;cruiser output</title>
<polygon fill="white" stroke="none" points="-4,4 -4,-222 614,-222 614,4 -4,4"/>
<g id="clust1" class="cluster"><title>cluster_src</title>
<path fill="#ffffff" stroke="black" stroke-width="2" d="M20,-8C20,-8 590,-8 590,-8 596,-8 602,-14 602,-20 602,-20 602,-198 602,-198 602,-204 596,-210 590,-210 590,-210 20,-210 20,-210 14,-210 8,-204 8,-198 8,-198 8,-20 8,-20 8,-14 14,-8 20,-8"/>
<text text-anchor="middle" x="305" y="-198.8" font-family="Helvetica,sans-Serif" font-weight="bold" font-size="9.00">src</text>
</g>
<g id="clust2" class="cluster"><title>cluster_src/components</title>
<path fill="#ffffff" stroke="black" stroke-width="2" d="M224,-42C224,-42 290,-42 290,-42 296,-42 302,-48 302,-54 302,-54 302,-172 302,-172 302,-178 296,-184 290,-184 290,-184 224,-184 224,-184 218,-184 212,-178 212,-172 212,-172 212,-54 212,-54 212,-48 218,-42 224,-42"/>
<text text-anchor="middle" x="257" y="-172.8" font-family="Helvetica,sans-Serif" font-weight="bold" font-size="9.00">components</text>
</g>
<g id="clust3" class="cluster"><title>cluster_src/components/customer</title>
<path fill="#ffffff" stroke="black" stroke-width="2" d="M232,-76C232,-76 282,-76 282,-76 288,-76 294,-82 294,-88 294,-88 294,-146 294,-146 294,-152 288,-158 282,-158 282,-158 232,-158 232,-158 226,-158 220,-152 220,-146 220,-146 220,-88 220,-88 220,-82 226,-76 232,-76"/>
<text text-anchor="middle" x="257" y="-146.8" font-family="Helvetica,sans-Serif" font-weight="bold" font-size="9.00">customer</text>
</g>
<g id="clust4" class="cluster"><title>cluster_src/rimless</title>
<path fill="#ffffff" stroke="black" stroke-width="2" d="M322,-48C322,-48 582,-48 582,-48 588,-48 594,-54 594,-60 594,-60 594,-172 594,-172 594,-178 588,-184 582,-184 582,-184 322,-184 322,-184 316,-184 310,-178 310,-172 310,-172 310,-60 310,-60 310,-54 316,-48 322,-48"/>
<text text-anchor="middle" x="452" y="-172.8" font-family="Helvetica,sans-Serif" font-weight="bold" font-size="9.00">rimless</text>
</g>
<!-- src/App.css -->
<g id="node1" class="node"><title>src/App.css</title>
<g id="a_node1"><a xlink:href="src/App.css" xlink:title="App.css">
<path fill="#ffffcc" stroke="black" d="M278,-34C278,-34 236,-34 236,-34 233,-34 230,-31 230,-28 230,-28 230,-22 230,-22 230,-19 233,-16 236,-16 236,-16 278,-16 278,-16 281,-16 284,-19 284,-22 284,-22 284,-28 284,-28 284,-31 281,-34 278,-34"/>
<text text-anchor="middle" x="257" y="-22.8" font-family="Helvetica,sans-Serif" font-size="9.00">App.css</text>
</a>
</g>
</g>
<!-- src/App.test.tsx -->
<g id="node2" class="node"><title>src/App.test.tsx</title>
<g id="a_node2"><a xlink:href="src/App.test.tsx" xlink:title="App.test.tsx">
<path fill="#bbfeff" stroke="black" d="M86.5,-85C86.5,-85 35.5,-85 35.5,-85 32.5,-85 29.5,-82 29.5,-79 29.5,-79 29.5,-73 29.5,-73 29.5,-70 32.5,-67 35.5,-67 35.5,-67 86.5,-67 86.5,-67 89.5,-67 92.5,-70 92.5,-73 92.5,-73 92.5,-79 92.5,-79 92.5,-82 89.5,-85 86.5,-85"/>
<text text-anchor="middle" x="61" y="-73.8" font-family="Helvetica,sans-Serif" font-size="9.00">App.test.tsx</text>
</a>
</g>
</g>
<!-- src/App.tsx -->
<g id="node3" class="node"><title>src/App.tsx</title>
<g id="a_node3"><a xlink:href="src/App.tsx" xlink:title="App.tsx">
<path fill="#bbfeff" stroke="black" d="M182.5,-85C182.5,-85 140.5,-85 140.5,-85 137.5,-85 134.5,-82 134.5,-79 134.5,-79 134.5,-73 134.5,-73 134.5,-70 137.5,-67 140.5,-67 140.5,-67 182.5,-67 182.5,-67 185.5,-67 188.5,-70 188.5,-73 188.5,-73 188.5,-79 188.5,-79 188.5,-82 185.5,-85 182.5,-85"/>
<text text-anchor="middle" x="161.5" y="-73.8" font-family="Helvetica,sans-Serif" font-size="9.00">App.tsx</text>
</a>
</g>
</g>
<!-- src/App.test.tsx&#45;&gt;src/App.tsx -->
<g id="edge1" class="edge"><title>src/App.test.tsx&#45;&gt;src/App.tsx</title>
<path fill="none" stroke="#000000" stroke-width="2" stroke-opacity="0.200000" d="M92.6261,-76C103.872,-76 116.636,-76 128.038,-76"/>
<polygon fill="#000000" fill-opacity="0.200000" stroke="#000000" stroke-width="2" stroke-opacity="0.200000" points="128.213,-78.1001 134.213,-76 128.213,-73.9001 128.213,-78.1001"/>
</g>
<!-- src/App.tsx&#45;&gt;src/App.css -->
<g id="edge2" class="edge"><title>src/App.tsx&#45;&gt;src/App.css</title>
<path fill="none" stroke="#000000" stroke-width="2" stroke-opacity="0.200000" d="M172.445,-66.9773C181.99,-58.7194 197.115,-46.6542 212,-39 215.823,-37.0342 219.975,-35.2776 224.15,-33.7289"/>
<polygon fill="#000000" fill-opacity="0.200000" stroke="#000000" stroke-width="2" stroke-opacity="0.200000" points="224.858,-35.7063 229.83,-31.7457 223.473,-31.7411 224.858,-35.7063"/>
</g>
<!-- src/components/customer/Create.tsx -->
<g id="node4" class="node"><title>src/components/customer/Create.tsx</title>
<g id="a_node4"><a xlink:href="src/components/customer/Create.tsx" xlink:title="Create.tsx">
<path fill="#bbfeff" stroke="black" d="M280,-132C280,-132 234,-132 234,-132 231,-132 228,-129 228,-126 228,-126 228,-120 228,-120 228,-117 231,-114 234,-114 234,-114 280,-114 280,-114 283,-114 286,-117 286,-120 286,-120 286,-126 286,-126 286,-129 283,-132 280,-132"/>
<text text-anchor="middle" x="257" y="-120.8" font-family="Helvetica,sans-Serif" font-size="9.00">Create.tsx</text>
</a>
</g>
</g>
<!-- src/App.tsx&#45;&gt;src/components/customer/Create.tsx -->
<g id="edge3" class="edge"><title>src/App.tsx&#45;&gt;src/components/customer/Create.tsx</title>
<path fill="none" stroke="#000000" stroke-width="2" stroke-opacity="0.200000" d="M188.815,-82.0031C194.29,-84.1638 199.696,-87.0788 204,-91 210.173,-96.6237 205.776,-102.433 212,-108 214.921,-110.613 218.317,-112.774 221.903,-114.561"/>
<polygon fill="#000000" fill-opacity="0.200000" stroke="#000000" stroke-width="2" stroke-opacity="0.200000" points="221.315,-116.596 227.654,-117.073 222.996,-112.747 221.315,-116.596"/>
</g>
<!-- src/components/customer/Edit.tsx -->
<g id="node5" class="node"><title>src/components/customer/Edit.tsx</title>
<g id="a_node5"><a xlink:href="src/components/customer/Edit.tsx" xlink:title="Edit.tsx">
<path fill="#bbfeff" stroke="black" d="M278,-102C278,-102 236,-102 236,-102 233,-102 230,-99 230,-96 230,-96 230,-90 230,-90 230,-87 233,-84 236,-84 236,-84 278,-84 278,-84 281,-84 284,-87 284,-90 284,-90 284,-96 284,-96 284,-99 281,-102 278,-102"/>
<text text-anchor="middle" x="257" y="-90.8" font-family="Helvetica,sans-Serif" font-size="9.00">Edit.tsx</text>
</a>
</g>
</g>
<!-- src/App.tsx&#45;&gt;src/components/customer/Edit.tsx -->
<g id="edge4" class="edge"><title>src/App.tsx&#45;&gt;src/components/customer/Edit.tsx</title>
<path fill="none" stroke="#000000" stroke-width="2" stroke-opacity="0.200000" d="M188.545,-80.7354C199.396,-82.7083 212.112,-85.0203 223.56,-87.1019"/>
<polygon fill="#000000" fill-opacity="0.200000" stroke="#000000" stroke-width="2" stroke-opacity="0.200000" points="223.492,-89.2237 229.77,-88.231 224.243,-85.0915 223.492,-89.2237"/>
</g>
<!-- src/components/Home.tsx -->
<g id="node6" class="node"><title>src/components/Home.tsx</title>
<g id="a_node6"><a xlink:href="src/components/Home.tsx" xlink:title="Home.tsx">
<path fill="#bbfeff" stroke="black" d="M279,-68C279,-68 235,-68 235,-68 232,-68 229,-65 229,-62 229,-62 229,-56 229,-56 229,-53 232,-50 235,-50 235,-50 279,-50 279,-50 282,-50 285,-53 285,-56 285,-56 285,-62 285,-62 285,-65 282,-68 279,-68"/>
<text text-anchor="middle" x="257" y="-56.8" font-family="Helvetica,sans-Serif" font-size="9.00">Home.tsx</text>
</a>
</g>
</g>
<!-- src/App.tsx&#45;&gt;src/components/Home.tsx -->
<g id="edge5" class="edge"><title>src/App.tsx&#45;&gt;src/components/Home.tsx</title>
<path fill="none" stroke="#000000" stroke-width="2" stroke-opacity="0.200000" d="M188.545,-71.2646C199.122,-69.3414 211.472,-67.0961 222.692,-65.056"/>
<polygon fill="#000000" fill-opacity="0.200000" stroke="#000000" stroke-width="2" stroke-opacity="0.200000" points="223.264,-67.0866 228.791,-63.9471 222.512,-62.9543 223.264,-67.0866"/>
</g>
<!-- src/mediator.ts -->
<g id="node7" class="node"><title>src/mediator.ts</title>
<g id="a_node7"><a xlink:href="src/mediator.ts" xlink:title="mediator.ts">
<path fill="#ddfeff" stroke="black" d="M375,-40C375,-40 324,-40 324,-40 321,-40 318,-37 318,-34 318,-34 318,-28 318,-28 318,-25 321,-22 324,-22 324,-22 375,-22 375,-22 378,-22 381,-25 381,-28 381,-28 381,-34 381,-34 381,-37 378,-40 375,-40"/>
<text text-anchor="middle" x="349.5" y="-28.8" font-family="Helvetica,sans-Serif" font-size="9.00">mediator.ts</text>
</a>
</g>
</g>
<!-- src/components/Home.tsx&#45;&gt;src/mediator.ts -->
<g id="edge6" class="edge"><title>src/components/Home.tsx&#45;&gt;src/mediator.ts</title>
<path fill="none" stroke="#000000" stroke-width="2" stroke-opacity="0.200000" d="M285.024,-51.1303C290.643,-49.462 296.521,-47.693 302,-46 306.123,-44.7261 310.444,-43.3661 314.721,-42.0045"/>
<polygon fill="#000000" fill-opacity="0.200000" stroke="#000000" stroke-width="2" stroke-opacity="0.200000" points="315.429,-43.9831 320.504,-40.1549 314.149,-39.9827 315.429,-43.9831"/>
</g>
<!-- src/rimless/guest.ts -->
<g id="node11" class="node"><title>src/rimless/guest.ts</title>
<g id="a_node11"><a xlink:href="src/rimless/guest.ts" xlink:title="guest.ts">
<path fill="#ddfeff" stroke="black" d="M442,-116C442,-116 400,-116 400,-116 397,-116 394,-113 394,-110 394,-110 394,-104 394,-104 394,-101 397,-98 400,-98 400,-98 442,-98 442,-98 445,-98 448,-101 448,-104 448,-104 448,-110 448,-110 448,-113 445,-116 442,-116"/>
<text text-anchor="middle" x="421" y="-104.8" font-family="Helvetica,sans-Serif" font-size="9.00">guest.ts</text>
</a>
</g>
</g>
<!-- src/mediator.ts&#45;&gt;src/rimless/guest.ts -->
<g id="edge10" class="edge"><title>src/mediator.ts&#45;&gt;src/rimless/guest.ts</title>
<path fill="none" stroke="#000000" stroke-width="2" stroke-opacity="0.200000" d="M375.409,-40.1492C377.47,-41.5576 379.38,-43.1664 381,-45 393.659,-59.3243 383.219,-70.2142 394,-86 395.923,-88.815 398.332,-91.4439 400.904,-93.824"/>
<polygon fill="#000000" fill-opacity="0.200000" stroke="#000000" stroke-width="2" stroke-opacity="0.200000" points="399.7,-95.556 405.638,-97.8257 402.411,-92.3484 399.7,-95.556"/>
</g>
<!-- src/index.css -->
<g id="node8" class="node"><title>src/index.css</title>
<g id="a_node8"><a xlink:href="src/index.css" xlink:title="index.css">
<path fill="#ffffcc" stroke="black" d="M183.5,-115C183.5,-115 139.5,-115 139.5,-115 136.5,-115 133.5,-112 133.5,-109 133.5,-109 133.5,-103 133.5,-103 133.5,-100 136.5,-97 139.5,-97 139.5,-97 183.5,-97 183.5,-97 186.5,-97 189.5,-100 189.5,-103 189.5,-103 189.5,-109 189.5,-109 189.5,-112 186.5,-115 183.5,-115"/>
<text text-anchor="middle" x="161.5" y="-103.8" font-family="Helvetica,sans-Serif" font-size="9.00">index.css</text>
</a>
</g>
</g>
<!-- src/index.tsx -->
<g id="node9" class="node"><title>src/index.tsx</title>
<g id="a_node9"><a xlink:href="src/index.tsx" xlink:title="index.tsx">
<path fill="#bbfeff" stroke="black" d="M82,-115C82,-115 40,-115 40,-115 37,-115 34,-112 34,-109 34,-109 34,-103 34,-103 34,-100 37,-97 40,-97 40,-97 82,-97 82,-97 85,-97 88,-100 88,-103 88,-103 88,-109 88,-109 88,-112 85,-115 82,-115"/>
<text text-anchor="middle" x="61" y="-103.8" font-family="Helvetica,sans-Serif" font-size="9.00">index.tsx</text>
</a>
</g>
</g>
<!-- src/index.tsx&#45;&gt;src/App.tsx -->
<g id="edge7" class="edge"><title>src/index.tsx&#45;&gt;src/App.tsx</title>
<path fill="none" stroke="#000000" stroke-width="2" stroke-opacity="0.200000" d="M88.1376,-98.0393C100.494,-94.276 115.36,-89.7482 128.395,-85.778"/>
<polygon fill="#000000" fill-opacity="0.200000" stroke="#000000" stroke-width="2" stroke-opacity="0.200000" points="129.112,-87.755 134.24,-83.9979 127.889,-83.7372 129.112,-87.755"/>
</g>
<!-- src/index.tsx&#45;&gt;src/index.css -->
<g id="edge8" class="edge"><title>src/index.tsx&#45;&gt;src/index.css</title>
<path fill="none" stroke="#000000" stroke-width="2" stroke-opacity="0.200000" d="M88.1376,-106C100.089,-106 114.388,-106 127.107,-106"/>
<polygon fill="#000000" fill-opacity="0.200000" stroke="#000000" stroke-width="2" stroke-opacity="0.200000" points="127.207,-108.1 133.207,-106 127.207,-103.9 127.207,-108.1"/>
</g>
<!-- src/serviceWorker.ts -->
<g id="node10" class="node"><title>src/serviceWorker.ts</title>
<g id="a_node10"><a xlink:href="src/serviceWorker.ts" xlink:title="serviceWorker.ts">
<path fill="#ddfeff" stroke="black" d="M198,-145C198,-145 125,-145 125,-145 122,-145 119,-142 119,-139 119,-139 119,-133 119,-133 119,-130 122,-127 125,-127 125,-127 198,-127 198,-127 201,-127 204,-130 204,-133 204,-133 204,-139 204,-139 204,-142 201,-145 198,-145"/>
<text text-anchor="middle" x="161.5" y="-133.8" font-family="Helvetica,sans-Serif" font-size="9.00">serviceWorker.ts</text>
</a>
</g>
</g>
<!-- src/index.tsx&#45;&gt;src/serviceWorker.ts -->
<g id="edge9" class="edge"><title>src/index.tsx&#45;&gt;src/serviceWorker.ts</title>
<path fill="none" stroke="#000000" stroke-width="2" stroke-opacity="0.200000" d="M88.1376,-113.961C99.4029,-117.392 112.755,-121.458 124.903,-125.158"/>
<polygon fill="#000000" fill-opacity="0.200000" stroke="#000000" stroke-width="2" stroke-opacity="0.200000" points="124.404,-127.202 130.756,-126.941 125.628,-123.184 124.404,-127.202"/>
</g>
<!-- src/rimless/helpers.ts -->
<g id="node13" class="node"><title>src/rimless/helpers.ts</title>
<g id="a_node13"><a xlink:href="src/rimless/helpers.ts" xlink:title="helpers.ts">
<path fill="#ddfeff" stroke="black" d="M580,-97C580,-97 534,-97 534,-97 531,-97 528,-94 528,-91 528,-91 528,-85 528,-85 528,-82 531,-79 534,-79 534,-79 580,-79 580,-79 583,-79 586,-82 586,-85 586,-85 586,-91 586,-91 586,-94 583,-97 580,-97"/>
<text text-anchor="middle" x="557" y="-85.8" font-family="Helvetica,sans-Serif" font-size="9.00">helpers.ts</text>
</a>
</g>
</g>
<!-- src/rimless/guest.ts&#45;&gt;src/rimless/helpers.ts -->
<g id="edge11" class="edge"><title>src/rimless/guest.ts&#45;&gt;src/rimless/helpers.ts</title>
<path fill="none" stroke="#000000" stroke-width="2" stroke-opacity="0.200000" d="M441.865,-97.9318C447.889,-95.5745 454.607,-93.3267 461,-92 480.895,-87.8712 503.62,-86.788 521.855,-86.7762"/>
<polygon fill="#000000" fill-opacity="0.200000" stroke="#000000" stroke-width="2" stroke-opacity="0.200000" points="521.844,-88.8761 527.856,-86.8104 521.868,-84.6761 521.844,-88.8761"/>
</g>
<!-- src/rimless/rpc.ts -->
<g id="node14" class="node"><title>src/rimless/rpc.ts</title>
<g id="a_node14"><a xlink:href="src/rimless/rpc.ts" xlink:title="rpc.ts">
<path fill="#ddfeff" stroke="black" d="M509,-116C509,-116 467,-116 467,-116 464,-116 461,-113 461,-110 461,-110 461,-104 461,-104 461,-101 464,-98 467,-98 467,-98 509,-98 509,-98 512,-98 515,-101 515,-104 515,-104 515,-110 515,-110 515,-113 512,-116 509,-116"/>
<text text-anchor="middle" x="488" y="-104.8" font-family="Helvetica,sans-Serif" font-size="9.00">rpc.ts</text>
</a>
</g>
</g>
<!-- src/rimless/guest.ts&#45;&gt;src/rimless/rpc.ts -->
<g id="edge12" class="edge"><title>src/rimless/guest.ts&#45;&gt;src/rimless/rpc.ts</title>
<path fill="none" stroke="#000000" stroke-width="2" stroke-opacity="0.200000" d="M448.063,-107C450.315,-107 452.61,-107 454.901,-107"/>
<polygon fill="#000000" fill-opacity="0.200000" stroke="#000000" stroke-width="2" stroke-opacity="0.200000" points="454.931,-109.1 460.931,-107 454.931,-104.9 454.931,-109.1"/>
</g>
<!-- src/rimless/types.ts -->
<g id="node15" class="node"><title>src/rimless/types.ts</title>
<g id="a_node15"><a xlink:href="src/rimless/types.ts" xlink:title="types.ts">
<path fill="#ddfeff" stroke="black" d="M578,-134C578,-134 536,-134 536,-134 533,-134 530,-131 530,-128 530,-128 530,-122 530,-122 530,-119 533,-116 536,-116 536,-116 578,-116 578,-116 581,-116 584,-119 584,-122 584,-122 584,-128 584,-128 584,-131 581,-134 578,-134"/>
<text text-anchor="middle" x="557" y="-122.8" font-family="Helvetica,sans-Serif" font-size="9.00">types.ts</text>
</a>
</g>
</g>
<!-- src/rimless/guest.ts&#45;&gt;src/rimless/types.ts -->
<g id="edge13" class="edge"><title>src/rimless/guest.ts&#45;&gt;src/rimless/types.ts</title>
<path fill="none" stroke="#000000" stroke-width="2" stroke-opacity="0.200000" d="M441.856,-116.111C447.88,-118.469 454.6,-120.707 461,-122 481.635,-126.169 505.297,-126.928 523.844,-126.64"/>
<polygon fill="#000000" fill-opacity="0.200000" stroke="#000000" stroke-width="2" stroke-opacity="0.200000" points="523.973,-128.738 529.926,-126.506 523.881,-124.539 523.973,-128.738"/>
</g>
<!-- src/react&#45;app&#45;env.d.ts -->
<g id="node12" class="node"><title>src/react&#45;app&#45;env.d.ts</title>
<g id="a_node12"><a xlink:href="src/react-app-env.d.ts" xlink:title="react&#45;app&#45;env.d.ts">
<path fill="#ccffcc" stroke="black" d="M100,-36C100,-36 22,-36 22,-36 19,-36 16,-33 16,-30 16,-30 16,-24 16,-24 16,-21 19,-18 22,-18 22,-18 100,-18 100,-18 103,-18 106,-21 106,-24 106,-24 106,-30 106,-30 106,-33 103,-36 100,-36"/>
<text text-anchor="middle" x="61" y="-24.8" font-family="Helvetica,sans-Serif" font-size="9.00">react&#45;app&#45;env.d.ts</text>
</a>
</g>
</g>
<!-- src/rimless/rpc.ts&#45;&gt;src/rimless/helpers.ts -->
<g id="edge19" class="edge"><title>src/rimless/rpc.ts&#45;&gt;src/rimless/helpers.ts</title>
<path fill="none" stroke="#000000" stroke-width="2" stroke-opacity="0.200000" d="M515.096,-99.5997C517.282,-98.9797 519.513,-98.3472 521.747,-97.7134"/>
<polygon fill="#000000" fill-opacity="0.200000" stroke="#000000" stroke-width="2" stroke-opacity="0.200000" points="522.447,-99.6978 527.647,-96.0405 521.301,-95.6572 522.447,-99.6978"/>
</g>
<!-- src/rimless/rpc.ts&#45;&gt;src/rimless/types.ts -->
<g id="edge20" class="edge"><title>src/rimless/rpc.ts&#45;&gt;src/rimless/types.ts</title>
<path fill="none" stroke="#000000" stroke-width="2" stroke-opacity="0.200000" d="M515.096,-114.011C517.976,-114.784 520.932,-115.579 523.875,-116.369"/>
<polygon fill="#000000" fill-opacity="0.200000" stroke="#000000" stroke-width="2" stroke-opacity="0.200000" points="523.526,-118.45 529.865,-117.979 524.616,-114.394 523.526,-118.45"/>
</g>
<!-- src/rimless/host.ts -->
<g id="node16" class="node"><title>src/rimless/host.ts</title>
<g id="a_node16"><a xlink:href="src/rimless/host.ts" xlink:title="host.ts">
<path fill="#ddfeff" stroke="black" d="M442,-149C442,-149 400,-149 400,-149 397,-149 394,-146 394,-143 394,-143 394,-137 394,-137 394,-134 397,-131 400,-131 400,-131 442,-131 442,-131 445,-131 448,-134 448,-137 448,-137 448,-143 448,-143 448,-146 445,-149 442,-149"/>
<text text-anchor="middle" x="421" y="-137.8" font-family="Helvetica,sans-Serif" font-size="9.00">host.ts</text>
</a>
</g>
</g>
<!-- src/rimless/host.ts&#45;&gt;src/rimless/helpers.ts -->
<g id="edge14" class="edge"><title>src/rimless/host.ts&#45;&gt;src/rimless/helpers.ts</title>
<path fill="none" stroke="#000000" stroke-width="2" stroke-opacity="0.200000" d="M448.097,-138.779C467.456,-136.987 494.015,-132.615 515,-122 522.016,-118.451 522.015,-115.1 528,-110 531.559,-106.968 535.458,-103.807 539.187,-100.859"/>
<polygon fill="#000000" fill-opacity="0.200000" stroke="#000000" stroke-width="2" stroke-opacity="0.200000" points="540.685,-102.353 544.117,-97.0014 538.097,-99.0446 540.685,-102.353"/>
</g>
<!-- src/rimless/host.ts&#45;&gt;src/rimless/rpc.ts -->
<g id="edge15" class="edge"><title>src/rimless/host.ts&#45;&gt;src/rimless/rpc.ts</title>
<path fill="none" stroke="#000000" stroke-width="2" stroke-opacity="0.200000" d="M439.762,-130.983C447.07,-127.272 455.64,-122.921 463.46,-118.951"/>
<polygon fill="#000000" fill-opacity="0.200000" stroke="#000000" stroke-width="2" stroke-opacity="0.200000" points="464.861,-120.595 469.26,-116.006 462.959,-116.85 464.861,-120.595"/>
</g>
<!-- src/rimless/host.ts&#45;&gt;src/rimless/types.ts -->
<g id="edge16" class="edge"><title>src/rimless/host.ts&#45;&gt;src/rimless/types.ts</title>
<path fill="none" stroke="#000000" stroke-width="2" stroke-opacity="0.200000" d="M448.036,-146.338C466.895,-149.876 492.859,-152.565 515,-147 522.834,-145.031 530.804,-141.243 537.608,-137.358"/>
<polygon fill="#000000" fill-opacity="0.200000" stroke="#000000" stroke-width="2" stroke-opacity="0.200000" points="538.957,-138.998 543.021,-134.11 536.796,-135.397 538.957,-138.998"/>
</g>
<!-- src/rimless/index.ts -->
<g id="node17" class="node"><title>src/rimless/index.ts</title>
<g id="a_node17"><a xlink:href="src/rimless/index.ts" xlink:title="index.ts">
<path fill="#ddfeff" stroke="black" d="M370.5,-131C370.5,-131 328.5,-131 328.5,-131 325.5,-131 322.5,-128 322.5,-125 322.5,-125 322.5,-119 322.5,-119 322.5,-116 325.5,-113 328.5,-113 328.5,-113 370.5,-113 370.5,-113 373.5,-113 376.5,-116 376.5,-119 376.5,-119 376.5,-125 376.5,-125 376.5,-128 373.5,-131 370.5,-131"/>
<text text-anchor="middle" x="349.5" y="-119.8" font-family="Helvetica,sans-Serif" font-size="9.00">index.ts</text>
</a>
</g>
</g>
<!-- src/rimless/index.ts&#45;&gt;src/rimless/guest.ts -->
<g id="edge17" class="edge"><title>src/rimless/index.ts&#45;&gt;src/rimless/guest.ts</title>
<path fill="none" stroke="#000000" stroke-width="2" stroke-opacity="0.200000" d="M376.775,-116.329C380.321,-115.564 383.993,-114.771 387.629,-113.987"/>
<polygon fill="#000000" fill-opacity="0.200000" stroke="#000000" stroke-width="2" stroke-opacity="0.200000" points="388.266,-115.998 393.688,-112.679 387.38,-111.892 388.266,-115.998"/>
</g>
<!-- src/rimless/index.ts&#45;&gt;src/rimless/host.ts -->
<g id="edge18" class="edge"><title>src/rimless/index.ts&#45;&gt;src/rimless/host.ts</title>
<path fill="none" stroke="#000000" stroke-width="2" stroke-opacity="0.200000" d="M376.775,-128.805C380.321,-129.723 383.993,-130.674 387.629,-131.616"/>
<polygon fill="#000000" fill-opacity="0.200000" stroke="#000000" stroke-width="2" stroke-opacity="0.200000" points="387.353,-133.714 393.688,-133.185 388.406,-129.648 387.353,-133.714"/>
</g>
<!-- src/rimless/typings.d.ts -->
<g id="node18" class="node"><title>src/rimless/typings.d.ts</title>
<g id="a_node18"><a xlink:href="src/rimless/typings.d.ts" xlink:title="typings.d.ts">
<path fill="#ccffcc" stroke="black" d="M375,-95C375,-95 324,-95 324,-95 321,-95 318,-92 318,-89 318,-89 318,-83 318,-83 318,-80 321,-77 324,-77 324,-77 375,-77 375,-77 378,-77 381,-80 381,-83 381,-83 381,-89 381,-89 381,-92 378,-95 375,-95"/>
<text text-anchor="middle" x="349.5" y="-83.8" font-family="Helvetica,sans-Serif" font-size="9.00">typings.d.ts</text>
</a>
</g>
</g>
<!-- src/rimless/worker.ts -->
<g id="node19" class="node"><title>src/rimless/worker.ts</title>
<g id="a_node19"><a xlink:href="src/rimless/worker.ts" xlink:title="worker.ts">
<path fill="#ddfeff" stroke="black" d="M442,-80C442,-80 400,-80 400,-80 397,-80 394,-77 394,-74 394,-74 394,-68 394,-68 394,-65 397,-62 400,-62 400,-62 442,-62 442,-62 445,-62 448,-65 448,-68 448,-68 448,-74 448,-74 448,-77 445,-80 442,-80"/>
<text text-anchor="middle" x="421" y="-68.8" font-family="Helvetica,sans-Serif" font-size="9.00">worker.ts</text>
</a>
</g>
</g>
<!-- src/rimless/worker.ts&#45;&gt;src/rimless/helpers.ts -->
<g id="edge21" class="edge"><title>src/rimless/worker.ts&#45;&gt;src/rimless/helpers.ts</title>
<path fill="none" stroke="#000000" stroke-width="2" stroke-opacity="0.200000" d="M448.03,-66.0691C466.886,-63.4132 492.849,-61.6571 515,-67 522.532,-68.8166 530.234,-72.2655 536.9,-75.8513"/>
<polygon fill="#000000" fill-opacity="0.200000" stroke="#000000" stroke-width="2" stroke-opacity="0.200000" points="535.972,-77.7389 542.229,-78.8626 538.038,-74.0824 535.972,-77.7389"/>
</g>
<!-- src/rimless/worker.ts&#45;&gt;src/rimless/rpc.ts -->
<g id="edge22" class="edge"><title>src/rimless/worker.ts&#45;&gt;src/rimless/rpc.ts</title>
<path fill="none" stroke="#000000" stroke-width="2" stroke-opacity="0.200000" d="M438.402,-80.0843C446.5,-84.5692 456.381,-90.0419 465.114,-94.8786"/>
<polygon fill="#000000" fill-opacity="0.200000" stroke="#000000" stroke-width="2" stroke-opacity="0.200000" points="464.111,-96.7234 470.377,-97.7934 466.146,-93.0493 464.111,-96.7234"/>
</g>
<!-- src/rimless/worker.ts&#45;&gt;src/rimless/types.ts -->
<g id="edge23" class="edge"><title>src/rimless/worker.ts&#45;&gt;src/rimless/types.ts</title>
<path fill="none" stroke="#000000" stroke-width="2" stroke-opacity="0.200000" d="M448.386,-73.5493C467.649,-76.2047 493.962,-81.5196 515,-92 521.775,-95.3748 522.134,-98.2167 528,-103 531.623,-105.955 535.549,-109.084 539.283,-112.026"/>
<polygon fill="#000000" fill-opacity="0.200000" stroke="#000000" stroke-width="2" stroke-opacity="0.200000" points="538.191,-113.839 544.209,-115.889 540.783,-110.534 538.191,-113.839"/>
</g>
</g>
</svg>
