<?xml version="1.0" encoding="UTF-8" standalone="no"?>
<!DOCTYPE svg PUBLIC "-//W3C//DTD SVG 1.1//EN"
 "http://www.w3.org/Graphics/SVG/1.1/DTD/svg11.dtd">
<!-- Generated by graphviz version 2.38.0 (20140413.2041)
 -->
<!-- Title: dependency&#45;cruiser output Pages: 1 -->
<svg width="532pt" height="370pt"
 viewBox="0.00 0.00 532.00 370.00" xmlns="http://www.w3.org/2000/svg" xmlns:xlink="http://www.w3.org/1999/xlink">
<g id="graph0" class="graph" transform="scale(1 1) rotate(0) translate(4 366)">
<title>dependency&#45;cruiser output</title>
<polygon fill="white" stroke="none" points="-4,4 -4,-366 528,-366 528,4 -4,4"/>
<g id="clust1" class="cluster"><title>cluster_src</title>
<path fill="#ffffff" stroke="black" stroke-width="2" d="M20,-8C20,-8 504,-8 504,-8 510,-8 516,-14 516,-20 516,-20 516,-342 516,-342 516,-348 510,-354 504,-354 504,-354 20,-354 20,-354 14,-354 8,-348 8,-342 8,-342 8,-20 8,-20 8,-14 14,-8 20,-8"/>
<text text-anchor="middle" x="262" y="-342.8" font-family="Helvetica,sans-Serif" font-weight="bold" font-size="9.00">src</text>
</g>
<g id="clust2" class="cluster"><title>cluster_src/components</title>
<path fill="#ffffff" stroke="black" stroke-width="2" d="M128,-16C128,-16 288,-16 288,-16 294,-16 300,-22 300,-28 300,-28 300,-116 300,-116 300,-122 294,-128 288,-128 288,-128 128,-128 128,-128 122,-128 116,-122 116,-116 116,-116 116,-28 116,-28 116,-22 122,-16 128,-16"/>
<text text-anchor="middle" x="208" y="-116.8" font-family="Helvetica,sans-Serif" font-weight="bold" font-size="9.00">components</text>
</g>
<g id="clust3" class="cluster"><title>cluster_src/rimless</title>
<path fill="#ffffff" stroke="black" stroke-width="2" d="M222,-192C222,-192 496,-192 496,-192 502,-192 508,-198 508,-204 508,-204 508,-316 508,-316 508,-322 502,-328 496,-328 496,-328 222,-328 222,-328 216,-328 210,-322 210,-316 210,-316 210,-204 210,-204 210,-198 216,-192 222,-192"/>
<text text-anchor="middle" x="359" y="-316.8" font-family="Helvetica,sans-Serif" font-weight="bold" font-size="9.00">rimless</text>
</g>
<!-- src/components/TodoApp.vue -->
<g id="node1" class="node"><title>src/components/TodoApp.vue</title>
<g id="a_node1"><a xlink:href="src/components/TodoApp.vue" xlink:title="TodoApp.vue">
<path fill="#41f083" stroke="black" d="M188,-102C188,-102 130,-102 130,-102 127,-102 124,-99 124,-96 124,-96 124,-90 124,-90 124,-87 127,-84 130,-84 130,-84 188,-84 188,-84 191,-84 194,-87 194,-90 194,-90 194,-96 194,-96 194,-99 191,-102 188,-102"/>
<text text-anchor="middle" x="159" y="-90.8" font-family="Helvetica,sans-Serif" font-size="9.00">TodoApp.vue</text>
</a>
</g>
</g>
<!-- src/mediator.ts -->
<g id="node2" class="node"><title>src/mediator.ts</title>
<g id="a_node2"><a xlink:href="src/mediator.ts" xlink:title="mediator.ts">
<path fill="#ddfeff" stroke="black" d="M275,-154C275,-154 224,-154 224,-154 221,-154 218,-151 218,-148 218,-148 218,-142 218,-142 218,-139 221,-136 224,-136 224,-136 275,-136 275,-136 278,-136 281,-139 281,-142 281,-142 281,-148 281,-148 281,-151 278,-154 275,-154"/>
<text text-anchor="middle" x="249.5" y="-142.8" font-family="Helvetica,sans-Serif" font-size="9.00">mediator.ts</text>
</a>
</g>
</g>
<!-- src/components/TodoApp.vue&#45;&gt;src/mediator.ts -->
<g id="edge1" class="edge"><title>src/components/TodoApp.vue&#45;&gt;src/mediator.ts</title>
<path fill="none" stroke="#000000" stroke-width="2" stroke-opacity="0.200000" d="M169.346,-102.255C178.34,-110.729 192.655,-123.114 207,-131 208.562,-131.859 210.185,-132.677 211.846,-133.456"/>
<polygon fill="#000000" fill-opacity="0.200000" stroke="#000000" stroke-width="2" stroke-opacity="0.200000" points="211.263,-135.492 217.603,-135.951 212.933,-131.638 211.263,-135.492"/>
</g>
<!-- src/models.ts -->
<g id="node3" class="node"><title>src/models.ts</title>
<g id="a_node3"><a xlink:href="src/models.ts" xlink:title="models.ts">
<path fill="#ddfeff" stroke="black" d="M272.5,-184C272.5,-184 226.5,-184 226.5,-184 223.5,-184 220.5,-181 220.5,-178 220.5,-178 220.5,-172 220.5,-172 220.5,-169 223.5,-166 226.5,-166 226.5,-166 272.5,-166 272.5,-166 275.5,-166 278.5,-169 278.5,-172 278.5,-172 278.5,-178 278.5,-178 278.5,-181 275.5,-184 272.5,-184"/>
<text text-anchor="middle" x="249.5" y="-172.8" font-family="Helvetica,sans-Serif" font-size="9.00">models.ts</text>
</a>
</g>
</g>
<!-- src/components/TodoApp.vue&#45;&gt;src/models.ts -->
<g id="edge2" class="edge"><title>src/components/TodoApp.vue&#45;&gt;src/models.ts</title>
<path fill="none" stroke="#000000" stroke-width="2" stroke-opacity="0.200000" d="M164.134,-102.149C171.039,-116.453 186.234,-144.117 207,-160 209.385,-161.824 212.012,-163.441 214.751,-164.872"/>
<polygon fill="#000000" fill-opacity="0.200000" stroke="#000000" stroke-width="2" stroke-opacity="0.200000" points="214.165,-166.916 220.49,-167.553 215.943,-163.111 214.165,-166.916"/>
</g>
<!-- src/components/TodoFooter.vue -->
<g id="node4" class="node"><title>src/components/TodoFooter.vue</title>
<g id="a_node4"><a xlink:href="src/components/TodoFooter.vue" xlink:title="TodoFooter.vue">
<path fill="#41f083" stroke="black" d="M283.5,-72C283.5,-72 215.5,-72 215.5,-72 212.5,-72 209.5,-69 209.5,-66 209.5,-66 209.5,-60 209.5,-60 209.5,-57 212.5,-54 215.5,-54 215.5,-54 283.5,-54 283.5,-54 286.5,-54 289.5,-57 289.5,-60 289.5,-60 289.5,-66 289.5,-66 289.5,-69 286.5,-72 283.5,-72"/>
<text text-anchor="middle" x="249.5" y="-60.8" font-family="Helvetica,sans-Serif" font-size="9.00">TodoFooter.vue</text>
</a>
</g>
</g>
<!-- src/components/TodoApp.vue&#45;&gt;src/components/TodoFooter.vue -->
<g id="edge3" class="edge"><title>src/components/TodoApp.vue&#45;&gt;src/components/TodoFooter.vue</title>
<path fill="none" stroke="#000000" stroke-width="2" stroke-opacity="0.200000" d="M186.553,-83.999C195.745,-80.8832 206.156,-77.3539 215.784,-74.0901"/>
<polygon fill="#000000" fill-opacity="0.200000" stroke="#000000" stroke-width="2" stroke-opacity="0.200000" points="216.652,-76.0135 221.66,-72.0983 215.303,-72.0358 216.652,-76.0135"/>
</g>
<!-- src/components/TodoHeader.vue -->
<g id="node5" class="node"><title>src/components/TodoHeader.vue</title>
<g id="a_node5"><a xlink:href="src/components/TodoHeader.vue" xlink:title="TodoHeader.vue">
<path fill="#41f083" stroke="black" d="M286,-102C286,-102 213,-102 213,-102 210,-102 207,-99 207,-96 207,-96 207,-90 207,-90 207,-87 210,-84 213,-84 213,-84 286,-84 286,-84 289,-84 292,-87 292,-90 292,-90 292,-96 292,-96 292,-99 289,-102 286,-102"/>
<text text-anchor="middle" x="249.5" y="-90.8" font-family="Helvetica,sans-Serif" font-size="9.00">TodoHeader.vue</text>
</a>
</g>
</g>
<!-- src/components/TodoApp.vue&#45;&gt;src/components/TodoHeader.vue -->
<g id="edge4" class="edge"><title>src/components/TodoApp.vue&#45;&gt;src/components/TodoHeader.vue</title>
<path fill="none" stroke="#000000" stroke-width="2" stroke-opacity="0.200000" d="M194.216,-93C196.439,-93 198.697,-93 200.966,-93"/>
<polygon fill="#000000" fill-opacity="0.200000" stroke="#000000" stroke-width="2" stroke-opacity="0.200000" points="200.984,-95.1001 206.984,-93 200.984,-90.9001 200.984,-95.1001"/>
</g>
<!-- src/components/TodoItem.vue -->
<g id="node6" class="node"><title>src/components/TodoItem.vue</title>
<g id="a_node6"><a xlink:href="src/components/TodoItem.vue" xlink:title="TodoItem.vue">
<path fill="#41f083" stroke="black" d="M279.5,-42C279.5,-42 219.5,-42 219.5,-42 216.5,-42 213.5,-39 213.5,-36 213.5,-36 213.5,-30 213.5,-30 213.5,-27 216.5,-24 219.5,-24 219.5,-24 279.5,-24 279.5,-24 282.5,-24 285.5,-27 285.5,-30 285.5,-30 285.5,-36 285.5,-36 285.5,-39 282.5,-42 279.5,-42"/>
<text text-anchor="middle" x="249.5" y="-30.8" font-family="Helvetica,sans-Serif" font-size="9.00">TodoItem.vue</text>
</a>
</g>
</g>
<!-- src/components/TodoApp.vue&#45;&gt;src/components/TodoItem.vue -->
<g id="edge5" class="edge"><title>src/components/TodoApp.vue&#45;&gt;src/components/TodoItem.vue</title>
<path fill="none" stroke="#000000" stroke-width="2" stroke-opacity="0.200000" d="M167.434,-83.8906C176.033,-73.872 191.065,-57.8855 207,-48 208.937,-46.7985 210.984,-45.6737 213.089,-44.624"/>
<polygon fill="#000000" fill-opacity="0.200000" stroke="#000000" stroke-width="2" stroke-opacity="0.200000" points="214.187,-46.431 218.764,-42.0196 212.435,-42.6138 214.187,-46.431"/>
</g>
<!-- src/rimless/guest.ts -->
<g id="node8" class="node"><title>src/rimless/guest.ts</title>
<g id="a_node8"><a xlink:href="src/rimless/guest.ts" xlink:title="guest.ts">
<path fill="#ddfeff" stroke="black" d="M356,-260C356,-260 314,-260 314,-260 311,-260 308,-257 308,-254 308,-254 308,-248 308,-248 308,-245 311,-242 314,-242 314,-242 356,-242 356,-242 359,-242 362,-245 362,-248 362,-248 362,-254 362,-254 362,-257 359,-260 356,-260"/>
<text text-anchor="middle" x="335" y="-248.8" font-family="Helvetica,sans-Serif" font-size="9.00">guest.ts</text>
</a>
</g>
</g>
<!-- src/mediator.ts&#45;&gt;src/rimless/guest.ts -->
<g id="edge7" class="edge"><title>src/mediator.ts&#45;&gt;src/rimless/guest.ts</title>
<path fill="none" stroke="#000000" stroke-width="2" stroke-opacity="0.200000" d="M281.224,-148.451C288.344,-150.688 295.226,-154.276 300,-160 320.057,-184.047 292.916,-202.559 308,-230 309.607,-232.924 311.804,-235.594 314.245,-237.976"/>
<polygon fill="#000000" fill-opacity="0.200000" stroke="#000000" stroke-width="2" stroke-opacity="0.200000" points="312.917,-239.604 318.826,-241.947 315.667,-236.43 312.917,-239.604"/>
</g>
<!-- src/main.ts -->
<g id="node7" class="node"><title>src/main.ts</title>
<g id="a_node7"><a xlink:href="src/main.ts" xlink:title="main.ts">
<path fill="#ddfeff" stroke="black" d="M83,-102C83,-102 41,-102 41,-102 38,-102 35,-99 35,-96 35,-96 35,-90 35,-90 35,-87 38,-84 41,-84 41,-84 83,-84 83,-84 86,-84 89,-87 89,-90 89,-90 89,-96 89,-96 89,-99 86,-102 83,-102"/>
<text text-anchor="middle" x="62" y="-90.8" font-family="Helvetica,sans-Serif" font-size="9.00">main.ts</text>
</a>
</g>
</g>
<!-- src/main.ts&#45;&gt;src/components/TodoApp.vue -->
<g id="edge6" class="edge"><title>src/main.ts&#45;&gt;src/components/TodoApp.vue</title>
<path fill="none" stroke="#000000" stroke-width="2" stroke-opacity="0.200000" d="M89.2106,-93C97.9508,-93 107.903,-93 117.47,-93"/>
<polygon fill="#000000" fill-opacity="0.200000" stroke="#000000" stroke-width="2" stroke-opacity="0.200000" points="117.685,-95.1001 123.685,-93 117.685,-90.9001 117.685,-95.1001"/>
</g>
<!-- src/rimless/helpers.ts -->
<g id="node9" class="node"><title>src/rimless/helpers.ts</title>
<g id="a_node9"><a xlink:href="src/rimless/helpers.ts" xlink:title="helpers.ts">
<path fill="#ddfeff" stroke="black" d="M494,-241C494,-241 448,-241 448,-241 445,-241 442,-238 442,-235 442,-235 442,-229 442,-229 442,-226 445,-223 448,-223 448,-223 494,-223 494,-223 497,-223 500,-226 500,-229 500,-229 500,-235 500,-235 500,-238 497,-241 494,-241"/>
<text text-anchor="middle" x="471" y="-229.8" font-family="Helvetica,sans-Serif" font-size="9.00">helpers.ts</text>
</a>
</g>
</g>
<!-- src/rimless/guest.ts&#45;&gt;src/rimless/helpers.ts -->
<g id="edge8" class="edge"><title>src/rimless/guest.ts&#45;&gt;src/rimless/helpers.ts</title>
<path fill="none" stroke="#000000" stroke-width="2" stroke-opacity="0.200000" d="M355.865,-241.932C361.889,-239.574 368.607,-237.327 375,-236 394.895,-231.871 417.62,-230.788 435.855,-230.776"/>
<polygon fill="#000000" fill-opacity="0.200000" stroke="#000000" stroke-width="2" stroke-opacity="0.200000" points="435.844,-232.876 441.856,-230.81 435.868,-228.676 435.844,-232.876"/>
</g>
<!-- src/rimless/rpc.ts -->
<g id="node10" class="node"><title>src/rimless/rpc.ts</title>
<g id="a_node10"><a xlink:href="src/rimless/rpc.ts" xlink:title="rpc.ts">
<path fill="#ddfeff" stroke="black" d="M423,-260C423,-260 381,-260 381,-260 378,-260 375,-257 375,-254 375,-254 375,-248 375,-248 375,-245 378,-242 381,-242 381,-242 423,-242 423,-242 426,-242 429,-245 429,-248 429,-248 429,-254 429,-254 429,-257 426,-260 423,-260"/>
<text text-anchor="middle" x="402" y="-248.8" font-family="Helvetica,sans-Serif" font-size="9.00">rpc.ts</text>
</a>
</g>
</g>
<!-- src/rimless/guest.ts&#45;&gt;src/rimless/rpc.ts -->
<g id="edge9" class="edge"><title>src/rimless/guest.ts&#45;&gt;src/rimless/rpc.ts</title>
<path fill="none" stroke="#000000" stroke-width="2" stroke-opacity="0.200000" d="M362.063,-251C364.315,-251 366.61,-251 368.901,-251"/>
<polygon fill="#000000" fill-opacity="0.200000" stroke="#000000" stroke-width="2" stroke-opacity="0.200000" points="368.931,-253.1 374.931,-251 368.931,-248.9 368.931,-253.1"/>
</g>
<!-- src/rimless/types.ts -->
<g id="node11" class="node"><title>src/rimless/types.ts</title>
<g id="a_node11"><a xlink:href="src/rimless/types.ts" xlink:title="types.ts">
<path fill="#ddfeff" stroke="black" d="M492,-278C492,-278 450,-278 450,-278 447,-278 444,-275 444,-272 444,-272 444,-266 444,-266 444,-263 447,-260 450,-260 450,-260 492,-260 492,-260 495,-260 498,-263 498,-266 498,-266 498,-272 498,-272 498,-275 495,-278 492,-278"/>
<text text-anchor="middle" x="471" y="-266.8" font-family="Helvetica,sans-Serif" font-size="9.00">types.ts</text>
</a>
</g>
</g>
<!-- src/rimless/guest.ts&#45;&gt;src/rimless/types.ts -->
<g id="edge10" class="edge"><title>src/rimless/guest.ts&#45;&gt;src/rimless/types.ts</title>
<path fill="none" stroke="#000000" stroke-width="2" stroke-opacity="0.200000" d="M355.856,-260.111C361.88,-262.469 368.6,-264.707 375,-266 395.635,-270.169 419.297,-270.928 437.844,-270.64"/>
<polygon fill="#000000" fill-opacity="0.200000" stroke="#000000" stroke-width="2" stroke-opacity="0.200000" points="437.973,-272.738 443.926,-270.506 437.881,-268.539 437.973,-272.738"/>
</g>
<!-- src/rimless/rpc.ts&#45;&gt;src/rimless/helpers.ts -->
<g id="edge16" class="edge"><title>src/rimless/rpc.ts&#45;&gt;src/rimless/helpers.ts</title>
<path fill="none" stroke="#000000" stroke-width="2" stroke-opacity="0.200000" d="M429.096,-243.6C431.282,-242.98 433.513,-242.347 435.747,-241.713"/>
<polygon fill="#000000" fill-opacity="0.200000" stroke="#000000" stroke-width="2" stroke-opacity="0.200000" points="436.447,-243.698 441.647,-240.04 435.301,-239.657 436.447,-243.698"/>
</g>
<!-- src/rimless/rpc.ts&#45;&gt;src/rimless/types.ts -->
<g id="edge17" class="edge"><title>src/rimless/rpc.ts&#45;&gt;src/rimless/types.ts</title>
<path fill="none" stroke="#000000" stroke-width="2" stroke-opacity="0.200000" d="M429.096,-258.011C431.976,-258.784 434.932,-259.579 437.875,-260.369"/>
<polygon fill="#000000" fill-opacity="0.200000" stroke="#000000" stroke-width="2" stroke-opacity="0.200000" points="437.526,-262.45 443.865,-261.979 438.616,-258.394 437.526,-262.45"/>
</g>
<!-- src/rimless/host.ts -->
<g id="node12" class="node"><title>src/rimless/host.ts</title>
<g id="a_node12"><a xlink:href="src/rimless/host.ts" xlink:title="host.ts">
<path fill="#ddfeff" stroke="black" d="M356,-293C356,-293 314,-293 314,-293 311,-293 308,-290 308,-287 308,-287 308,-281 308,-281 308,-278 311,-275 314,-275 314,-275 356,-275 356,-275 359,-275 362,-278 362,-281 362,-281 362,-287 362,-287 362,-290 359,-293 356,-293"/>
<text text-anchor="middle" x="335" y="-281.8" font-family="Helvetica,sans-Serif" font-size="9.00">host.ts</text>
</a>
</g>
</g>
<!-- src/rimless/host.ts&#45;&gt;src/rimless/helpers.ts -->
<g id="edge11" class="edge"><title>src/rimless/host.ts&#45;&gt;src/rimless/helpers.ts</title>
<path fill="none" stroke="#000000" stroke-width="2" stroke-opacity="0.200000" d="M362.097,-282.779C381.456,-280.987 408.015,-276.615 429,-266 436.016,-262.451 436.015,-259.1 442,-254 445.559,-250.968 449.458,-247.807 453.187,-244.859"/>
<polygon fill="#000000" fill-opacity="0.200000" stroke="#000000" stroke-width="2" stroke-opacity="0.200000" points="454.685,-246.353 458.117,-241.001 452.097,-243.045 454.685,-246.353"/>
</g>
<!-- src/rimless/host.ts&#45;&gt;src/rimless/rpc.ts -->
<g id="edge12" class="edge"><title>src/rimless/host.ts&#45;&gt;src/rimless/rpc.ts</title>
<path fill="none" stroke="#000000" stroke-width="2" stroke-opacity="0.200000" d="M353.762,-274.983C361.07,-271.272 369.64,-266.921 377.46,-262.951"/>
<polygon fill="#000000" fill-opacity="0.200000" stroke="#000000" stroke-width="2" stroke-opacity="0.200000" points="378.861,-264.595 383.26,-260.006 376.959,-260.85 378.861,-264.595"/>
</g>
<!-- src/rimless/host.ts&#45;&gt;src/rimless/types.ts -->
<g id="edge13" class="edge"><title>src/rimless/host.ts&#45;&gt;src/rimless/types.ts</title>
<path fill="none" stroke="#000000" stroke-width="2" stroke-opacity="0.200000" d="M362.036,-290.338C380.895,-293.876 406.859,-296.565 429,-291 436.834,-289.031 444.804,-285.243 451.608,-281.358"/>
<polygon fill="#000000" fill-opacity="0.200000" stroke="#000000" stroke-width="2" stroke-opacity="0.200000" points="452.957,-282.998 457.021,-278.11 450.796,-279.397 452.957,-282.998"/>
</g>
<!-- src/rimless/index.ts -->
<g id="node13" class="node"><title>src/rimless/index.ts</title>
<g id="a_node13"><a xlink:href="src/rimless/index.ts" xlink:title="index.ts">
<path fill="#ddfeff" stroke="black" d="M270.5,-275C270.5,-275 228.5,-275 228.5,-275 225.5,-275 222.5,-272 222.5,-269 222.5,-269 222.5,-263 222.5,-263 222.5,-260 225.5,-257 228.5,-257 228.5,-257 270.5,-257 270.5,-257 273.5,-257 276.5,-260 276.5,-263 276.5,-263 276.5,-269 276.5,-269 276.5,-272 273.5,-275 270.5,-275"/>
<text text-anchor="middle" x="249.5" y="-263.8" font-family="Helvetica,sans-Serif" font-size="9.00">index.ts</text>
</a>
</g>
</g>
<!-- src/rimless/index.ts&#45;&gt;src/rimless/guest.ts -->
<g id="edge14" class="edge"><title>src/rimless/index.ts&#45;&gt;src/rimless/guest.ts</title>
<path fill="none" stroke="#000000" stroke-width="2" stroke-opacity="0.200000" d="M276.92,-261.254C284.763,-259.845 293.445,-258.285 301.621,-256.817"/>
<polygon fill="#000000" fill-opacity="0.200000" stroke="#000000" stroke-width="2" stroke-opacity="0.200000" points="302.218,-258.843 307.752,-255.715 301.475,-254.709 302.218,-258.843"/>
</g>
<!-- src/rimless/index.ts&#45;&gt;src/rimless/host.ts -->
<g id="edge15" class="edge"><title>src/rimless/index.ts&#45;&gt;src/rimless/host.ts</title>
<path fill="none" stroke="#000000" stroke-width="2" stroke-opacity="0.200000" d="M276.92,-271.695C284.763,-273.386 293.445,-275.258 301.621,-277.02"/>
<polygon fill="#000000" fill-opacity="0.200000" stroke="#000000" stroke-width="2" stroke-opacity="0.200000" points="301.444,-279.13 307.752,-278.342 302.329,-275.024 301.444,-279.13"/>
</g>
<!-- src/rimless/typings.d.ts -->
<g id="node14" class="node"><title>src/rimless/typings.d.ts</title>
<g id="a_node14"><a xlink:href="src/rimless/typings.d.ts" xlink:title="typings.d.ts">
<path fill="#ccffcc" stroke="black" d="M275,-239C275,-239 224,-239 224,-239 221,-239 218,-236 218,-233 218,-233 218,-227 218,-227 218,-224 221,-221 224,-221 224,-221 275,-221 275,-221 278,-221 281,-224 281,-227 281,-227 281,-233 281,-233 281,-236 278,-239 275,-239"/>
<text text-anchor="middle" x="249.5" y="-227.8" font-family="Helvetica,sans-Serif" font-size="9.00">typings.d.ts</text>
</a>
</g>
</g>
<!-- src/rimless/worker.ts -->
<g id="node15" class="node"><title>src/rimless/worker.ts</title>
<g id="a_node15"><a xlink:href="src/rimless/worker.ts" xlink:title="worker.ts">
<path fill="#ddfeff" stroke="black" d="M356,-224C356,-224 314,-224 314,-224 311,-224 308,-221 308,-218 308,-218 308,-212 308,-212 308,-209 311,-206 314,-206 314,-206 356,-206 356,-206 359,-206 362,-209 362,-212 362,-212 362,-218 362,-218 362,-221 359,-224 356,-224"/>
<text text-anchor="middle" x="335" y="-212.8" font-family="Helvetica,sans-Serif" font-size="9.00">worker.ts</text>
</a>
</g>
</g>
<!-- src/rimless/worker.ts&#45;&gt;src/rimless/helpers.ts -->
<g id="edge18" class="edge"><title>src/rimless/worker.ts&#45;&gt;src/rimless/helpers.ts</title>
<path fill="none" stroke="#000000" stroke-width="2" stroke-opacity="0.200000" d="M362.03,-210.069C380.886,-207.413 406.849,-205.657 429,-211 436.532,-212.817 444.234,-216.266 450.9,-219.851"/>
<polygon fill="#000000" fill-opacity="0.200000" stroke="#000000" stroke-width="2" stroke-opacity="0.200000" points="449.972,-221.739 456.229,-222.863 452.038,-218.082 449.972,-221.739"/>
</g>
<!-- src/rimless/worker.ts&#45;&gt;src/rimless/rpc.ts -->
<g id="edge19" class="edge"><title>src/rimless/worker.ts&#45;&gt;src/rimless/rpc.ts</title>
<path fill="none" stroke="#000000" stroke-width="2" stroke-opacity="0.200000" d="M352.402,-224.084C360.5,-228.569 370.381,-234.042 379.114,-238.879"/>
<polygon fill="#000000" fill-opacity="0.200000" stroke="#000000" stroke-width="2" stroke-opacity="0.200000" points="378.111,-240.723 384.377,-241.793 380.146,-237.049 378.111,-240.723"/>
</g>
<!-- src/rimless/worker.ts&#45;&gt;src/rimless/types.ts -->
<g id="edge20" class="edge"><title>src/rimless/worker.ts&#45;&gt;src/rimless/types.ts</title>
<path fill="none" stroke="#000000" stroke-width="2" stroke-opacity="0.200000" d="M362.386,-217.549C381.649,-220.205 407.962,-225.52 429,-236 435.775,-239.375 436.134,-242.217 442,-247 445.623,-249.955 449.549,-253.084 453.283,-256.026"/>
<polygon fill="#000000" fill-opacity="0.200000" stroke="#000000" stroke-width="2" stroke-opacity="0.200000" points="452.191,-257.839 458.209,-259.889 454.783,-254.534 452.191,-257.839"/>
</g>
<!-- src/vue&#45;file&#45;shims.d.ts -->
<g id="node16" class="node"><title>src/vue&#45;file&#45;shims.d.ts</title>
<g id="a_node16"><a xlink:href="src/vue-file-shims.d.ts" xlink:title="vue&#45;file&#45;shims.d.ts">
<path fill="#ccffcc" stroke="black" d="M102,-53C102,-53 22,-53 22,-53 19,-53 16,-50 16,-47 16,-47 16,-41 16,-41 16,-38 19,-35 22,-35 22,-35 102,-35 102,-35 105,-35 108,-38 108,-41 108,-41 108,-47 108,-47 108,-50 105,-53 102,-53"/>
<text text-anchor="middle" x="62" y="-41.8" font-family="Helvetica,sans-Serif" font-size="9.00">vue&#45;file&#45;shims.d.ts</text>
</a>
</g>
</g>
</g>
</svg>
